<svg width="114" height="40" viewBox="0 0 114 40" fill="none" xmlns="http://www.w3.org/2000/svg">
<path fill-rule="evenodd" clip-rule="evenodd" d="M73.1895 7.95543C78.2815 7.95543 80.3046 11.2028 80.3046 16.0377C80.3046 19.7788 79.6155 22.6027 76.2447 23.7651L81.1013 31.6005H74.2096L67.5705 18.6661L67.608 24.3309V31.6005H61.6665V28.0995C60.4417 30.2786 57.8744 31.6005 54.4252 31.6005H41.3277V18.018L46.8802 7.95543H54.3894C58.3486 7.95543 61.124 9.96315 61.6648 13.0905V7.95543H73.1895ZM52.3509 13.5328H48.5946V17.5568H52.3167C53.7207 17.5568 54.6691 16.7098 54.6691 15.5097C54.6691 14.2735 53.7207 13.5328 52.3509 13.5328ZM48.5946 26.0249H52.6681C54.1079 26.0249 55.0205 25.1779 55.0205 23.8028C55.0205 22.6027 54.1079 21.826 52.6681 21.826H48.5946V26.0249ZM57.2688 19.5319C58.9644 19.5559 60.6908 20.168 61.6648 21.7231V15.3914C61.1752 18.1895 58.9184 19.3605 57.2688 19.3913V19.5319ZM67.6046 18.685H71.6082C73.4352 18.685 74.5576 17.7317 74.5576 16.216C74.5576 14.8393 73.4335 13.886 71.6082 13.886H67.6046V18.685ZM38.1121 7.95709H40.531H46.0836L40.531 18.0197L36.9897 24.4372V31.6022H29.4038V24.4372L24.5881 15.3964L20.6493 7.99995L20.6272 7.95709H28.5611L33.3716 17.1675L38.1121 7.95709ZM85.2414 7.95706C83.2336 7.95706 81.6079 9.59272 81.6079 11.609V31.6021H88.8765V11.609C88.8765 9.591 87.2492 7.95706 85.2414 7.95706ZM90.2651 7.95706H100.517C108.207 7.95706 113.333 12.7903 113.333 19.7787C113.333 26.7672 108.207 31.6021 100.517 31.6021H90.2651V7.95706ZM97.532 25.531H99.9202C103.572 25.531 105.995 23.1667 105.995 19.7787C105.995 16.3908 103.572 14.0265 99.9202 14.0265H97.532V25.531Z" fill="white"/>
<path d="M15.919 8V16H7.9595V8V0H0V8V16V24V32H7.9595V24H15.919V32V40H23.8785V32V24V16V15.3965L19.9397 8H15.919Z" fill="#01E6BE"/>
</svg>
