<svg width="664" height="805" viewBox="0 0 664 805" fill="none" xmlns="http://www.w3.org/2000/svg">
<path d="M61.7657 587.872C61.7657 591.434 60.9483 594.704 59.3135 597.681C57.6787 600.601 55.168 602.965 51.7816 604.775C48.3952 606.585 44.1913 607.49 39.1701 607.49H29.8866V629.561H14.9104V568.079H39.1701C44.0746 568.079 48.22 568.926 51.6065 570.619C54.9929 572.312 57.5327 574.648 59.2259 577.626C60.9191 580.603 61.7657 584.019 61.7657 587.872ZM38.0315 595.58C40.8925 595.58 43.0236 594.908 44.4249 593.565C45.8262 592.222 46.5268 590.325 46.5268 587.872C46.5268 585.42 45.8262 583.523 44.4249 582.18C43.0236 580.837 40.8925 580.165 38.0315 580.165H29.8866V595.58H38.0315ZM100.916 629.561L88.1294 606.352H84.5386V629.561H69.5624V568.079H94.6979C99.544 568.079 103.66 568.926 107.047 570.619C110.491 572.312 113.06 574.648 114.754 577.626C116.447 580.545 117.294 583.815 117.294 587.435C117.294 591.522 116.126 595.171 113.79 598.382C111.513 601.593 108.127 603.87 103.631 605.213L117.819 629.561H100.916ZM84.5386 595.755H93.8221C96.5662 595.755 98.6098 595.083 99.9527 593.74C101.354 592.397 102.055 590.5 102.055 588.048C102.055 585.712 101.354 583.873 99.9527 582.53C98.6098 581.187 96.5662 580.516 93.8221 580.516H84.5386V595.755ZM196.321 568.079V629.561H181.345V592.689L167.595 629.561H155.508L141.671 592.602V629.561H126.695V568.079H144.386L161.639 610.643L178.717 568.079H196.321ZM245.363 618.701H222.417L218.739 629.561H203.062L225.307 568.079H242.648L264.893 629.561H249.041L245.363 618.701ZM241.509 607.14L233.89 584.632L226.358 607.14H241.509ZM330.247 568.079V580.078H305.199V593.04H323.941V604.688H305.199V629.561H290.223V568.079H330.247ZM353.094 580.078V592.514H373.15V604.075H353.094V617.562H375.778V629.561H338.118V568.079H375.778V580.078H353.094ZM408.534 568.079C415.015 568.079 420.678 569.364 425.524 571.933C430.371 574.502 434.107 578.122 436.735 582.793C439.421 587.405 440.763 592.748 440.763 598.82C440.763 604.834 439.421 610.176 436.735 614.847C434.107 619.518 430.341 623.138 425.437 625.707C420.591 628.276 414.957 629.561 408.534 629.561H385.5V568.079H408.534ZM407.571 616.599C413.234 616.599 417.642 615.051 420.795 611.957C423.948 608.862 425.524 604.483 425.524 598.82C425.524 593.156 423.948 588.748 420.795 585.595C417.642 582.443 413.234 580.866 407.571 580.866H400.477V616.599H407.571ZM464.109 580.078V592.514H484.165V604.075H464.109V617.562H486.792V629.561H449.133V568.079H486.792V580.078H464.109ZM527.869 629.561L515.082 606.352H511.491V629.561H496.515V568.079H521.65C526.496 568.079 530.613 568.926 533.999 570.619C537.444 572.312 540.013 574.648 541.706 577.626C543.399 580.545 544.246 583.815 544.246 587.435C544.246 591.522 543.078 595.171 540.743 598.382C538.466 601.593 535.079 603.87 530.584 605.213L544.772 629.561H527.869ZM511.491 595.755H520.775C523.519 595.755 525.562 595.083 526.905 593.74C528.306 592.397 529.007 590.5 529.007 588.048C529.007 585.712 528.306 583.873 526.905 582.53C525.562 581.187 523.519 580.516 520.775 580.516H511.491V595.755ZM591.92 618.701H568.974L565.295 629.561H549.619L571.864 568.079H589.205L611.45 629.561H595.598L591.92 618.701ZM588.066 607.14L580.447 584.632L572.915 607.14H588.066ZM633.196 618H652.814V629.561H618.22V568.079H633.196V618Z" fill="white"/>
<path d="M152.536 662.996C152.536 664.75 152.133 666.361 151.328 667.827C150.523 669.265 149.286 670.43 147.618 671.322C145.95 672.213 143.879 672.659 141.406 672.659H136.833V683.53H129.456V653.246H141.406C143.822 653.246 145.864 653.663 147.532 654.497C149.2 655.331 150.451 656.481 151.285 657.948C152.119 659.415 152.536 661.097 152.536 662.996ZM140.845 666.792C142.254 666.792 143.304 666.461 143.994 665.8C144.684 665.138 145.029 664.204 145.029 662.996C145.029 661.788 144.684 660.853 143.994 660.192C143.304 659.53 142.254 659.199 140.845 659.199H136.833V666.792H140.845ZM171.82 683.53L165.522 672.098H163.753V683.53H156.376V653.246H168.757C171.145 653.246 173.172 653.663 174.84 654.497C176.537 655.331 177.803 656.481 178.637 657.948C179.471 659.386 179.888 660.997 179.888 662.78C179.888 664.793 179.312 666.591 178.162 668.172C177.04 669.754 175.372 670.876 173.158 671.537L180.146 683.53H171.82ZM163.753 666.878H168.326C169.678 666.878 170.684 666.547 171.346 665.886C172.036 665.225 172.381 664.29 172.381 663.082C172.381 661.932 172.036 661.026 171.346 660.364C170.684 659.703 169.678 659.372 168.326 659.372H163.753V666.878ZM198.841 683.832C195.994 683.832 193.376 683.171 190.989 681.848C188.631 680.525 186.747 678.684 185.338 676.326C183.958 673.939 183.267 671.264 183.267 668.302C183.267 665.34 183.958 662.679 185.338 660.321C186.747 657.963 188.631 656.122 190.989 654.799C193.376 653.476 195.994 652.815 198.841 652.815C201.688 652.815 204.291 653.476 206.649 654.799C209.036 656.122 210.906 657.963 212.257 660.321C213.638 662.679 214.328 665.34 214.328 668.302C214.328 671.264 213.638 673.939 212.257 676.326C210.877 678.684 209.008 680.525 206.649 681.848C204.291 683.171 201.688 683.832 198.841 683.832ZM198.841 677.102C201.257 677.102 203.184 676.297 204.622 674.687C206.088 673.076 206.822 670.948 206.822 668.302C206.822 665.627 206.088 663.499 204.622 661.917C203.184 660.307 201.257 659.501 198.841 659.501C196.396 659.501 194.441 660.292 192.974 661.874C191.536 663.456 190.817 665.598 190.817 668.302C190.817 670.977 191.536 673.119 192.974 674.73C194.441 676.312 196.396 677.102 198.841 677.102ZM245.524 683.53H238.147L225.809 664.851V683.53H218.432V653.246H225.809L238.147 672.012V653.246H245.524V683.53ZM272.657 653.246V659.156H264.633V683.53H257.256V659.156H249.232V653.246H272.657ZM295.212 678.181H283.909L282.097 683.53H274.375L285.333 653.246H293.874L304.832 683.53H297.023L295.212 678.181ZM293.313 672.486L289.56 661.399L285.85 672.486H293.313ZM332.753 683.53L326.454 672.098H324.686V683.53H317.309V653.246H329.69C332.077 653.246 334.105 653.663 335.773 654.497C337.469 655.331 338.735 656.481 339.569 657.948C340.403 659.386 340.82 660.997 340.82 662.78C340.82 664.793 340.245 666.591 339.094 668.172C337.973 669.754 336.305 670.876 334.09 671.537L341.079 683.53H332.753ZM324.686 666.878H329.258C330.61 666.878 331.617 666.547 332.278 665.886C332.969 665.225 333.314 664.29 333.314 663.082C333.314 661.932 332.969 661.026 332.278 660.364C331.617 659.703 330.61 659.372 329.258 659.372H324.686V666.878ZM352.828 659.156V665.282H362.707V670.977H352.828V677.62H364.001V683.53H345.451V653.246H364.001V659.156H352.828ZM379.748 683.832C377.533 683.832 375.549 683.473 373.794 682.754C372.04 682.035 370.631 680.971 369.567 679.561C368.531 678.152 367.985 676.455 367.927 674.471H375.779C375.894 675.593 376.282 676.455 376.944 677.059C377.605 677.634 378.468 677.922 379.532 677.922C380.625 677.922 381.488 677.678 382.121 677.189C382.753 676.671 383.07 675.966 383.07 675.075C383.07 674.327 382.811 673.709 382.293 673.22C381.804 672.731 381.186 672.328 380.438 672.012C379.719 671.696 378.684 671.336 377.332 670.933C375.376 670.329 373.78 669.725 372.543 669.122C371.307 668.518 370.243 667.626 369.351 666.447C368.46 665.268 368.014 663.729 368.014 661.831C368.014 659.012 369.035 656.812 371.077 655.23C373.119 653.62 375.779 652.815 379.058 652.815C382.394 652.815 385.083 653.62 387.125 655.23C389.167 656.812 390.26 659.027 390.403 661.874H382.422C382.365 660.896 382.005 660.134 381.344 659.588C380.683 659.012 379.834 658.725 378.799 658.725C377.907 658.725 377.188 658.969 376.642 659.458C376.095 659.918 375.822 660.594 375.822 661.486C375.822 662.464 376.282 663.226 377.203 663.772C378.123 664.319 379.561 664.908 381.517 665.541C383.472 666.202 385.054 666.835 386.262 667.439C387.499 668.043 388.563 668.92 389.454 670.071C390.346 671.221 390.792 672.702 390.792 674.514C390.792 676.24 390.346 677.807 389.454 679.216C388.592 680.626 387.326 681.747 385.658 682.581C383.99 683.415 382.02 683.832 379.748 683.832ZM418.411 662.996C418.411 664.75 418.009 666.361 417.203 667.827C416.398 669.265 415.161 670.43 413.493 671.322C411.825 672.213 409.755 672.659 407.281 672.659H402.708V683.53H395.331V653.246H407.281C409.697 653.246 411.739 653.663 413.407 654.497C415.075 655.331 416.326 656.481 417.16 657.948C417.994 659.415 418.411 661.097 418.411 662.996ZM406.72 666.792C408.13 666.792 409.179 666.461 409.87 665.8C410.56 665.138 410.905 664.204 410.905 662.996C410.905 661.788 410.56 660.853 409.87 660.192C409.179 659.53 408.13 659.199 406.72 659.199H402.708V666.792H406.72ZM436.574 683.832C433.727 683.832 431.11 683.171 428.723 681.848C426.365 680.525 424.481 678.684 423.071 676.326C421.691 673.939 421.001 671.264 421.001 668.302C421.001 665.34 421.691 662.679 423.071 660.321C424.481 657.963 426.365 656.122 428.723 654.799C431.11 653.476 433.727 652.815 436.574 652.815C439.422 652.815 442.024 653.476 444.383 654.799C446.77 656.122 448.639 657.963 449.991 660.321C451.371 662.679 452.062 665.34 452.062 668.302C452.062 671.264 451.371 673.939 449.991 676.326C448.61 678.684 446.741 680.525 444.383 681.848C442.024 683.171 439.422 683.832 436.574 683.832ZM436.574 677.102C438.99 677.102 440.917 676.297 442.355 674.687C443.822 673.076 444.555 670.948 444.555 668.302C444.555 665.627 443.822 663.499 442.355 661.917C440.917 660.307 438.99 659.501 436.574 659.501C434.13 659.501 432.174 660.292 430.707 661.874C429.269 663.456 428.55 665.598 428.55 668.302C428.55 670.977 429.269 673.119 430.707 674.73C432.174 676.312 434.13 677.102 436.574 677.102ZM467.123 683.832C464.909 683.832 462.924 683.473 461.17 682.754C459.415 682.035 458.006 680.971 456.942 679.561C455.907 678.152 455.36 676.455 455.303 674.471H463.154C463.269 675.593 463.658 676.455 464.319 677.059C464.981 677.634 465.843 677.922 466.907 677.922C468 677.922 468.863 677.678 469.496 677.189C470.129 676.671 470.445 675.966 470.445 675.075C470.445 674.327 470.186 673.709 469.668 673.22C469.179 672.731 468.561 672.328 467.813 672.012C467.094 671.696 466.059 671.336 464.707 670.933C462.752 670.329 461.155 669.725 459.919 669.122C458.682 668.518 457.618 667.626 456.726 666.447C455.835 665.268 455.389 663.729 455.389 661.831C455.389 659.012 456.41 656.812 458.452 655.23C460.494 653.62 463.154 652.815 466.433 652.815C469.769 652.815 472.458 653.62 474.5 655.23C476.542 656.812 477.635 659.027 477.779 661.874H469.798C469.74 660.896 469.381 660.134 468.719 659.588C468.058 659.012 467.209 658.725 466.174 658.725C465.283 658.725 464.564 658.969 464.017 659.458C463.471 659.918 463.197 660.594 463.197 661.486C463.197 662.464 463.658 663.226 464.578 663.772C465.498 664.319 466.936 664.908 468.892 665.541C470.848 666.202 472.429 666.835 473.637 667.439C474.874 668.043 475.938 668.92 476.83 670.071C477.721 671.221 478.167 672.702 478.167 674.514C478.167 676.24 477.721 677.807 476.83 679.216C475.967 680.626 474.701 681.747 473.033 682.581C471.365 683.415 469.395 683.832 467.123 683.832ZM504.493 653.246V659.156H496.468V683.53H489.092V659.156H481.067V653.246H504.493ZM527.047 678.181H515.744L513.932 683.53H506.21L517.168 653.246H525.71L536.667 683.53H528.859L527.047 678.181ZM525.149 672.486L521.396 661.399L517.686 672.486H525.149Z" fill="white"/>
<path d="M156.352 705.006V735.29H148.975V717.128L142.202 735.29H136.249L129.432 717.085V735.29H122.056V705.006H130.77L139.268 725.972L147.681 705.006H156.352ZM175.979 735.592C173.132 735.592 170.515 734.931 168.128 733.608C165.769 732.285 163.886 730.444 162.476 728.086C161.096 725.699 160.406 723.024 160.406 720.062C160.406 717.099 161.096 714.439 162.476 712.081C163.886 709.722 165.769 707.882 168.128 706.559C170.515 705.236 173.132 704.574 175.979 704.574C178.826 704.574 181.429 705.236 183.788 706.559C186.175 707.882 188.044 709.722 189.396 712.081C190.776 714.439 191.466 717.099 191.466 720.062C191.466 723.024 190.776 725.699 189.396 728.086C188.015 730.444 186.146 732.285 183.788 733.608C181.429 734.931 178.826 735.592 175.979 735.592ZM175.979 728.862C178.395 728.862 180.322 728.057 181.76 726.446C183.227 724.836 183.96 722.708 183.96 720.062C183.96 717.387 183.227 715.259 181.76 713.677C180.322 712.066 178.395 711.261 175.979 711.261C173.535 711.261 171.579 712.052 170.112 713.634C168.674 715.216 167.955 717.358 167.955 720.062C167.955 722.736 168.674 724.879 170.112 726.489C171.579 728.071 173.535 728.862 175.979 728.862ZM222.662 735.29H215.285L202.947 716.61V735.29H195.57V705.006H202.947L215.285 723.772V705.006H222.662V735.29ZM235.387 705.006V735.29H228.01V705.006H235.387ZM262.518 705.006V710.916H254.494V735.29H247.117V710.916H239.093V705.006H262.518ZM280.543 735.592C277.696 735.592 275.079 734.931 272.692 733.608C270.333 732.285 268.45 730.444 267.04 728.086C265.66 725.699 264.97 723.024 264.97 720.062C264.97 717.099 265.66 714.439 267.04 712.081C268.45 709.722 270.333 707.882 272.692 706.559C275.079 705.236 277.696 704.574 280.543 704.574C283.39 704.574 285.993 705.236 288.351 706.559C290.739 707.882 292.608 709.722 293.96 712.081C295.34 714.439 296.03 717.099 296.03 720.062C296.03 723.024 295.34 725.699 293.96 728.086C292.579 730.444 290.71 732.285 288.351 733.608C285.993 734.931 283.39 735.592 280.543 735.592ZM280.543 728.862C282.959 728.862 284.886 728.057 286.324 726.446C287.791 724.836 288.524 722.708 288.524 720.062C288.524 717.387 287.791 715.259 286.324 713.677C284.886 712.066 282.959 711.261 280.543 711.261C278.099 711.261 276.143 712.052 274.676 713.634C273.238 715.216 272.519 717.358 272.519 720.062C272.519 722.736 273.238 724.879 274.676 726.489C276.143 728.071 278.099 728.862 280.543 728.862ZM315.579 735.29L309.28 723.858H307.511V735.29H300.134V705.006H312.516C314.903 705.006 316.93 705.423 318.598 706.257C320.295 707.091 321.561 708.241 322.395 709.708C323.229 711.146 323.646 712.757 323.646 714.54C323.646 716.553 323.071 718.35 321.92 719.932C320.798 721.514 319.13 722.636 316.916 723.297L323.905 735.29H315.579ZM307.511 718.638H312.084C313.436 718.638 314.443 718.307 315.104 717.646C315.794 716.984 316.139 716.05 316.139 714.842C316.139 713.691 315.794 712.785 315.104 712.124C314.443 711.462 313.436 711.132 312.084 711.132H307.511V718.638ZM347.129 729.941H335.826L334.014 735.29H326.292L337.25 705.006H345.791L356.749 735.29H348.941L347.129 729.941ZM345.231 724.246L341.477 713.159L337.767 724.246H345.231ZM394.38 705.006V735.29H387.003V717.128L380.23 735.29H374.277L367.461 717.085V735.29H360.084V705.006H368.798L377.297 725.972L385.709 705.006H394.38ZM407.062 710.916V717.042H416.941V722.736H407.062V729.38H418.235V735.29H399.685V705.006H418.235V710.916H407.062ZM450.116 735.29H442.739L430.401 716.61V735.29H423.024V705.006H430.401L442.739 723.772V705.006H450.116V735.29ZM477.249 705.006V710.916H469.225V735.29H461.848V710.916H453.824V705.006H477.249ZM495.274 735.592C492.427 735.592 489.81 734.931 487.423 733.608C485.064 732.285 483.181 730.444 481.771 728.086C480.391 725.699 479.701 723.024 479.701 720.062C479.701 717.099 480.391 714.439 481.771 712.081C483.181 709.722 485.064 707.882 487.423 706.559C489.81 705.236 492.427 704.574 495.274 704.574C498.121 704.574 500.724 705.236 503.083 706.559C505.47 707.882 507.339 709.722 508.691 712.081C510.071 714.439 510.761 717.099 510.761 720.062C510.761 723.024 510.071 725.699 508.691 728.086C507.31 730.444 505.441 732.285 503.083 733.608C500.724 734.931 498.121 735.592 495.274 735.592ZM495.274 728.862C497.69 728.862 499.617 728.057 501.055 726.446C502.522 724.836 503.255 722.708 503.255 720.062C503.255 717.387 502.522 715.259 501.055 713.677C499.617 712.066 497.69 711.261 495.274 711.261C492.83 711.261 490.874 712.052 489.407 713.634C487.969 715.216 487.25 717.358 487.25 720.062C487.25 722.736 487.969 724.879 489.407 726.489C490.874 728.071 492.83 728.862 495.274 728.862ZM531.384 710.916V717.042H541.263V722.736H531.384V729.38H542.558V735.29H524.007V705.006H542.558V710.916H531.384Z" fill="white"/>
<path d="M41.398 781.711H30.0953L28.2834 787.061H20.5613L31.5189 756.776H40.0606L51.0182 787.061H43.2098L41.398 781.711ZM39.4998 776.017L35.7466 764.93L32.0366 776.017H39.4998ZM65.3107 787.363C63.0961 787.363 61.1117 787.003 59.3573 786.284C57.603 785.565 56.1937 784.501 55.1296 783.092C54.0943 781.682 53.5478 779.986 53.4903 778.001H61.3418C61.4568 779.123 61.8451 779.986 62.5066 780.59C63.168 781.165 64.0308 781.452 65.095 781.452C66.1878 781.452 67.0506 781.208 67.6834 780.719C68.3161 780.201 68.6324 779.497 68.6324 778.605C68.6324 777.857 68.3736 777.239 67.8559 776.75C67.367 776.261 66.7487 775.859 66.0009 775.542C65.2819 775.226 64.2465 774.866 62.8948 774.464C60.9391 773.86 59.343 773.256 58.1063 772.652C56.8696 772.048 55.8055 771.156 54.9139 769.977C54.0224 768.798 53.5766 767.259 53.5766 765.361C53.5766 762.543 54.5976 760.343 56.6395 758.761C58.6815 757.15 61.3418 756.345 64.6204 756.345C67.9566 756.345 70.6456 757.15 72.6876 758.761C74.7296 760.343 75.8224 762.557 75.9662 765.404H67.9853C67.9278 764.426 67.5683 763.664 66.9068 763.118C66.2454 762.543 65.3969 762.255 64.3616 762.255C63.47 762.255 62.751 762.5 62.2046 762.988C61.6581 763.449 61.3849 764.124 61.3849 765.016C61.3849 765.994 61.8451 766.756 62.7654 767.302C63.6857 767.849 65.1237 768.438 67.0794 769.071C69.0351 769.733 70.6169 770.365 71.8248 770.969C73.0615 771.573 74.1256 772.45 75.0172 773.601C75.9087 774.751 76.3545 776.232 76.3545 778.044C76.3545 779.77 75.9087 781.337 75.0172 782.747C74.1544 784.156 72.8889 785.277 71.2208 786.111C69.5528 786.946 67.5827 787.363 65.3107 787.363ZM91.8519 787.363C89.6373 787.363 87.6529 787.003 85.8985 786.284C84.1442 785.565 82.7349 784.501 81.6708 783.092C80.6355 781.682 80.089 779.986 80.0315 778.001H87.883C87.998 779.123 88.3863 779.986 89.0478 780.59C89.7092 781.165 90.572 781.452 91.6362 781.452C92.729 781.452 93.5918 781.208 94.2246 780.719C94.8573 780.201 95.1736 779.497 95.1736 778.605C95.1736 777.857 94.9148 777.239 94.3971 776.75C93.9082 776.261 93.2899 775.859 92.5421 775.542C91.8231 775.226 90.7877 774.866 89.436 774.464C87.4803 773.86 85.8842 773.256 84.6475 772.652C83.4108 772.048 82.3467 771.156 81.4551 769.977C80.5636 768.798 80.1178 767.259 80.1178 765.361C80.1178 762.543 81.1388 760.343 83.1807 758.761C85.2227 757.15 87.883 756.345 91.1616 756.345C94.4978 756.345 97.1868 757.15 99.2288 758.761C101.271 760.343 102.364 762.557 102.507 765.404H94.5265C94.469 764.426 94.1095 763.664 93.448 763.118C92.7866 762.543 91.9381 762.255 90.9028 762.255C90.0112 762.255 89.2922 762.5 88.7458 762.988C88.1993 763.449 87.9261 764.124 87.9261 765.016C87.9261 765.994 88.3863 766.756 89.3066 767.302C90.2269 767.849 91.6649 768.438 93.6206 769.071C95.5763 769.733 97.1581 770.365 98.366 770.969C99.6027 771.573 100.667 772.45 101.558 773.601C102.45 774.751 102.896 776.232 102.896 778.044C102.896 779.77 102.45 781.337 101.558 782.747C100.696 784.156 99.4301 785.277 97.762 786.111C96.094 786.946 94.1239 787.363 91.8519 787.363ZM114.812 756.776V787.061H107.436V756.776H114.812ZM131.116 787.363C128.901 787.363 126.917 787.003 125.163 786.284C123.408 785.565 121.999 784.501 120.935 783.092C119.9 781.682 119.353 779.986 119.296 778.001H127.147C127.262 779.123 127.65 779.986 128.312 780.59C128.973 781.165 129.836 781.452 130.9 781.452C131.993 781.452 132.856 781.208 133.489 780.719C134.121 780.201 134.438 779.497 134.438 778.605C134.438 777.857 134.179 777.239 133.661 776.75C133.172 776.261 132.554 775.859 131.806 775.542C131.087 775.226 130.052 774.866 128.7 774.464C126.744 773.86 125.148 773.256 123.912 772.652C122.675 772.048 121.611 771.156 120.719 769.977C119.828 768.798 119.382 767.259 119.382 765.361C119.382 762.543 120.403 760.343 122.445 758.761C124.487 757.15 127.147 756.345 130.426 756.345C133.762 756.345 136.451 757.15 138.493 758.761C140.535 760.343 141.628 762.557 141.772 765.404H133.791C133.733 764.426 133.374 763.664 132.712 763.118C132.051 762.543 131.202 762.255 130.167 762.255C129.275 762.255 128.556 762.5 128.01 762.988C127.463 763.449 127.19 764.124 127.19 765.016C127.19 765.994 127.65 766.756 128.571 767.302C129.491 767.849 130.929 768.438 132.885 769.071C134.84 769.733 136.422 770.365 137.63 770.969C138.867 771.573 139.931 772.45 140.823 773.601C141.714 774.751 142.16 776.232 142.16 778.044C142.16 779.77 141.714 781.337 140.823 782.747C139.96 784.156 138.694 785.277 137.026 786.111C135.358 786.946 133.388 787.363 131.116 787.363ZM168.485 756.776V762.686H160.461V787.061H153.084V762.686H145.06V756.776H168.485ZM179.565 762.686V768.812H189.444V774.507H179.565V781.15H190.738V787.061H172.188V756.776H190.738V762.686H179.565ZM181.247 751.513L174.56 755.051V749.96L181.247 746.552L187.934 749.96V755.051L181.247 751.513ZM222.619 787.061H215.242L202.904 768.381V787.061H195.527V756.776H202.904L215.242 775.542V756.776H222.619V787.061ZM226.715 771.875C226.715 768.884 227.362 766.224 228.657 763.894C229.951 761.536 231.748 759.71 234.049 758.416C236.379 757.093 239.01 756.431 241.944 756.431C245.539 756.431 248.616 757.38 251.176 759.278C253.735 761.177 255.447 763.765 256.309 767.044H248.199C247.595 765.778 246.732 764.815 245.611 764.153C244.518 763.492 243.267 763.161 241.857 763.161C239.585 763.161 237.745 763.952 236.335 765.534C234.926 767.115 234.222 769.229 234.222 771.875C234.222 774.521 234.926 776.635 236.335 778.217C237.745 779.799 239.585 780.59 241.857 780.59C243.267 780.59 244.518 780.259 245.611 779.597C246.732 778.936 247.595 777.972 248.199 776.707H256.309C255.447 779.986 253.735 782.574 251.176 784.472C248.616 786.342 245.539 787.276 241.944 787.276C239.01 787.276 236.379 786.629 234.049 785.335C231.748 784.012 229.951 782.186 228.657 779.856C227.362 777.527 226.715 774.866 226.715 771.875ZM268.204 756.776V787.061H260.827V756.776H268.204ZM292.402 781.711H281.099L279.287 787.061H271.565L282.523 756.776H291.065L302.022 787.061H294.214L292.402 781.711ZM290.504 776.017L286.751 764.93L283.041 776.017H290.504ZM342.928 756.776L332.186 787.061H322.955L312.213 756.776H320.064L327.571 779.64L335.12 756.776H342.928ZM353.388 762.686V768.812H363.268V774.507H353.388V781.15H364.562V787.061H346.012V756.776H364.562V762.686H353.388ZM376.728 756.776V787.061H369.351V756.776H376.728ZM380.823 771.875C380.823 768.884 381.47 766.224 382.764 763.894C384.058 761.536 385.856 759.71 388.157 758.416C390.486 757.093 393.118 756.431 396.051 756.431C399.646 756.431 402.724 757.38 405.283 759.278C407.843 761.177 409.554 763.765 410.417 767.044H402.307C401.703 765.778 400.84 764.815 399.718 764.153C398.625 763.492 397.374 763.161 395.965 763.161C393.693 763.161 391.852 763.952 390.443 765.534C389.034 767.115 388.329 769.229 388.329 771.875C388.329 774.521 389.034 776.635 390.443 778.217C391.852 779.799 393.693 780.59 395.965 780.59C397.374 780.59 398.625 780.259 399.718 779.597C400.84 778.936 401.703 777.972 402.307 776.707H410.417C409.554 779.986 407.843 782.574 405.283 784.472C402.724 786.342 399.646 787.276 396.051 787.276C393.118 787.276 390.486 786.629 388.157 785.335C385.856 784.012 384.058 782.186 382.764 779.856C381.47 777.527 380.823 774.866 380.823 771.875ZM422.182 756.776V774.895C422.182 776.707 422.628 778.102 423.519 779.08C424.411 780.057 425.719 780.546 427.445 780.546C429.171 780.546 430.494 780.057 431.414 779.08C432.334 778.102 432.794 776.707 432.794 774.895V756.776H440.171V774.852C440.171 777.555 439.596 779.842 438.446 781.711C437.295 783.581 435.742 784.99 433.787 785.939C431.86 786.888 429.703 787.363 427.316 787.363C424.929 787.363 422.786 786.902 420.888 785.982C419.018 785.033 417.537 783.624 416.444 781.754C415.351 779.856 414.805 777.555 414.805 774.852V756.776H422.182ZM452.728 781.366H462.392V787.061H445.351V756.776H452.728V781.366ZM484.763 781.711H473.46L471.648 787.061H463.926L474.883 756.776H483.425L494.383 787.061H486.574L484.763 781.711ZM482.864 776.017L479.111 764.93L475.401 776.017H482.864ZM513.162 787.061L506.863 775.628H505.095V787.061H497.718V756.776H510.099C512.486 756.776 514.514 757.193 516.182 758.027C517.878 758.861 519.144 760.012 519.978 761.479C520.812 762.917 521.229 764.527 521.229 766.31C521.229 768.323 520.654 770.121 519.503 771.703C518.382 773.285 516.714 774.406 514.499 775.068L521.488 787.061H513.162ZM505.095 770.409H509.667C511.019 770.409 512.026 770.078 512.687 769.416C513.378 768.755 513.723 767.82 513.723 766.612C513.723 765.462 513.378 764.556 512.687 763.894C512.026 763.233 511.019 762.902 509.667 762.902H505.095V770.409ZM534.01 781.15C534.987 780.374 535.433 780.014 535.347 780.072C538.165 777.742 540.38 775.83 541.99 774.334C543.63 772.839 545.01 771.271 546.132 769.632C547.254 767.993 547.814 766.396 547.814 764.843C547.814 763.664 547.541 762.744 546.995 762.082C546.448 761.421 545.629 761.09 544.536 761.09C543.443 761.09 542.58 761.507 541.947 762.341C541.343 763.147 541.041 764.297 541.041 765.793H533.923C533.981 763.348 534.498 761.306 535.476 759.667C536.483 758.027 537.791 756.819 539.402 756.043C541.041 755.266 542.853 754.878 544.838 754.878C548.26 754.878 550.834 755.755 552.56 757.51C554.314 759.264 555.191 761.55 555.191 764.369C555.191 767.446 554.142 770.308 552.042 772.954C549.943 775.571 547.268 778.131 544.018 780.633H555.666V786.629H534.01V781.15ZM559.086 781.452V775.499L572.719 756H580.958V775.068H584.496V781.452H580.958V787.061H573.581V781.452H559.086ZM574.099 764.11L566.852 775.068H574.099V764.11ZM615.072 756.776V787.061H607.695V774.593H596.219V787.061H588.843V756.776H596.219V768.64H607.695V756.776H615.072ZM631.355 787.363C629.14 787.363 627.156 787.003 625.401 786.284C623.647 785.565 622.238 784.501 621.174 783.092C620.138 781.682 619.592 779.986 619.534 778.001H627.386C627.501 779.123 627.889 779.986 628.551 780.59C629.212 781.165 630.075 781.452 631.139 781.452C632.232 781.452 633.095 781.208 633.727 780.719C634.36 780.201 634.676 779.497 634.676 778.605C634.676 777.857 634.418 777.239 633.9 776.75C633.411 776.261 632.793 775.859 632.045 775.542C631.326 775.226 630.291 774.866 628.939 774.464C626.983 773.86 625.387 773.256 624.15 772.652C622.914 772.048 621.849 771.156 620.958 769.977C620.066 768.798 619.621 767.259 619.621 765.361C619.621 762.543 620.642 760.343 622.684 758.761C624.725 757.15 627.386 756.345 630.664 756.345C634.001 756.345 636.69 757.15 638.732 758.761C640.774 760.343 641.866 762.557 642.01 765.404H634.029C633.972 764.426 633.612 763.664 632.951 763.118C632.289 762.543 631.441 762.255 630.406 762.255C629.514 762.255 628.795 762.5 628.249 762.988C627.702 763.449 627.429 764.124 627.429 765.016C627.429 765.994 627.889 766.756 628.809 767.302C629.73 767.849 631.168 768.438 633.123 769.071C635.079 769.733 636.661 770.365 637.869 770.969C639.105 771.573 640.17 772.45 641.061 773.601C641.953 774.751 642.398 776.232 642.398 778.044C642.398 779.77 641.953 781.337 641.061 782.747C640.198 784.156 638.933 785.277 637.265 786.111C635.597 786.946 633.627 787.363 631.355 787.363Z" fill="white"/>
<path d="M105.551 350.65L191.681 257.91C221.301 225.79 241.571 199.88 251.951 180.89C262.531 161.51 267.901 140.48 267.901 118.36C267.901 86.75 256.611 58.93 234.351 35.67C212.031 12.36 182.481 0.540039 146.541 0.540039C110.601 0.540039 79.4006 13.08 54.7106 37.82C30.0506 62.52 17.0206 94.47 15.9606 132.79L15.8206 137.93H61.7305L62.0806 133.31C64.2006 105.62 72.8906 83.91 87.9406 68.79C103.081 53.57 121.581 46.17 144.501 46.17C167.421 46.17 184.101 53.22 199.071 67.72C214.001 82.18 221.261 98.92 221.261 118.89C221.261 134.67 217.051 149.92 208.741 164.22C200.161 178.97 181.201 202.1 152.371 232.98L0.560547 397.04H273.041V350.65H105.571H105.551Z" fill="white"/>
<path d="M361.101 263.51H309.051L406.101 125.92V218.46H453.521V0.549805H438.281L221.031 309.39H361.101V263.51Z" fill="white"/>
<path d="M406.1 332V397.04H453.52V309.39H499.14V263.51H490.44H406.1V332Z" fill="white"/>
<path d="M617.551 145.49C588.321 105.85 546.901 76.6904 500.931 63.4004L500.471 64.9904V108.48C571.701 134.64 620.471 206.1 620.471 286.5C620.471 390.44 540.171 475 441.471 475C365.661 475 298.891 425.47 273.221 351H248.581L229.871 356.7C244.001 403.06 271.331 443 308.901 472.21C347.431 502.17 393.281 518 441.471 518C500.961 518 556.831 493.79 598.801 449.84C640.511 406.16 663.471 348.15 663.471 286.5C663.471 234.99 647.591 186.23 617.561 145.49H617.551Z" fill="white"/>
</svg>
