<svg width="1599" height="708" viewBox="0 0 1599 708" fill="none" xmlns="http://www.w3.org/2000/svg">
<path d="M721.98 4.85986L609.52 496.36H417.92L360.99 217.29L304.06 496.36H112.46L0 4.85986H165.92L210.35 314.48L276.99 4.85986H444.99L511.63 314.48L556.06 4.85986H721.98Z" fill="url(#paint0_linear_2863_290)"/>
<path d="M1096.85 4.85986V127.04H903.86V195.07H1042.7V311H903.86V496.36H749.74V4.85986H1096.85Z" fill="url(#paint1_linear_2863_290)"/>
<path d="M1136.76 120.1C1156.43 82.16 1184.54 52.65 1221.11 31.59C1257.66 10.54 1300.71 0 1350.23 0C1392.8 0 1430.87 7.97995 1464.43 23.95C1497.98 39.92 1525.28 62.48 1546.35 91.64C1567.4 120.8 1581.41 154.81 1588.35 193.69H1425.9C1418.49 177.5 1407.96 164.88 1394.31 155.86C1380.65 146.84 1365.03 142.32 1347.45 142.32C1321.53 142.32 1301.05 152.04 1286.01 171.48C1270.97 190.92 1263.45 217.07 1263.45 249.93C1263.45 282.79 1270.97 308.94 1286.01 328.38C1301.04 347.82 1321.52 357.54 1347.45 357.54C1365.03 357.54 1380.65 353.03 1394.31 344C1407.96 334.98 1418.49 322.37 1425.9 306.17H1588.35C1581.41 345.05 1567.4 379.06 1546.35 408.22C1525.28 437.38 1497.98 459.94 1464.43 475.91C1430.87 491.88 1392.81 499.86 1350.23 499.86C1300.7 499.86 1257.66 489.34 1221.11 468.27C1184.54 447.22 1156.43 417.71 1136.76 379.76C1117.08 341.82 1107.26 298.54 1107.26 249.94C1107.26 201.34 1117.09 158.08 1136.76 120.12V120.1Z" fill="url(#paint2_linear_2863_290)"/>
<path d="M133.07 529.66V553.25H86.1503V705.93H57.2403V553.25H10.0703V529.66H133.07Z" fill="url(#paint3_linear_2863_290)"/>
<path d="M181 552.99V604.73H241.87V628.32H181V682.34H249.48V705.93H152.09V529.41H249.48V553H181V552.99Z" fill="url(#paint4_linear_2863_290)"/>
<path d="M277.24 571C285.27 557.3 296.17 546.61 309.96 538.92C323.74 531.23 338.83 527.38 355.23 527.38C374 527.38 390.69 531.99 405.32 541.2C419.94 550.42 430.55 563.48 437.15 580.38H402.4C397.84 571.08 391.49 564.15 383.38 559.58C375.26 555.02 365.88 552.73 355.23 552.73C343.56 552.73 333.17 555.35 324.04 560.59C314.91 565.83 307.77 573.36 302.61 583.16C297.45 592.97 294.87 604.38 294.87 617.4C294.87 630.42 297.45 641.83 302.61 651.64C307.77 661.45 314.91 669.01 324.04 674.34C333.17 679.67 343.57 682.33 355.23 682.33C365.88 682.33 375.27 680.05 383.38 675.48C391.5 670.91 397.84 663.98 402.4 654.68H437.15C430.56 671.59 419.94 684.61 405.32 693.74C390.69 702.87 374 707.44 355.23 707.44C338.66 707.44 323.53 703.6 309.83 695.9C296.14 688.21 285.27 677.51 277.24 663.82C269.21 650.12 265.19 634.65 265.19 617.41C265.19 600.17 269.2 584.69 277.24 571Z" fill="url(#paint5_linear_2863_290)"/>
<path d="M601.49 529.66V705.92H572.58V628.82H489.65V705.92H460.74V529.66H489.65V605.24H572.58V529.66H601.49Z" fill="url(#paint6_linear_2863_290)"/>
<path d="M774.201 705.92H745.291L658.301 574.29V705.92H629.391V529.4H658.301L745.291 660.77V529.4H774.201V705.92Z" fill="url(#paint7_linear_2863_290)"/>
<path d="M837.22 696.16C823.44 688.47 812.53 677.73 804.5 663.95C796.47 650.17 792.45 634.66 792.45 617.41C792.45 600.16 796.46 584.69 804.5 571C812.53 557.3 823.43 546.61 837.22 538.92C851 531.23 866.09 527.38 882.49 527.38C898.89 527.38 914.23 531.23 928.01 538.92C941.79 546.62 952.65 557.31 960.6 571C968.55 584.7 972.52 600.17 972.52 617.41C972.52 634.65 968.55 650.17 960.6 663.95C952.65 677.73 941.79 688.47 928.01 696.16C914.23 703.86 899.05 707.7 882.49 707.7C865.93 707.7 851 703.86 837.22 696.16ZM913.68 674.6C922.81 669.27 929.95 661.67 935.11 651.77C940.27 641.88 942.85 630.43 942.85 617.41C942.85 604.39 940.27 592.98 935.11 583.17C929.95 573.37 922.81 565.84 913.68 560.6C904.55 555.36 894.15 552.74 882.49 552.74C870.83 552.74 860.42 555.36 851.29 560.6C842.16 565.84 835.01 573.37 829.86 583.17C824.7 592.98 822.12 604.39 822.12 617.41C822.12 630.43 824.7 641.88 829.86 651.77C835.02 661.66 842.16 669.27 851.29 674.6C860.42 679.93 870.82 682.59 882.49 682.59C894.16 682.59 904.55 679.93 913.68 674.6Z" fill="url(#paint8_linear_2863_290)"/>
<path d="M1019.7 682.59H1079.3V705.92H990.79V529.66H1019.7V682.59Z" fill="url(#paint9_linear_2863_290)"/>
<path d="M1128.37 696.16C1114.59 688.47 1103.68 677.73 1095.65 663.95C1087.62 650.17 1083.6 634.66 1083.6 617.41C1083.6 600.16 1087.61 584.69 1095.65 571C1103.68 557.3 1114.58 546.61 1128.37 538.92C1142.15 531.23 1157.24 527.38 1173.64 527.38C1190.04 527.38 1205.38 531.23 1219.16 538.92C1232.94 546.62 1243.8 557.31 1251.75 571C1259.7 584.7 1263.67 600.17 1263.67 617.41C1263.67 634.65 1259.7 650.17 1251.75 663.95C1243.8 677.73 1232.94 688.47 1219.16 696.16C1205.38 703.86 1190.2 707.7 1173.64 707.7C1157.08 707.7 1142.15 703.86 1128.37 696.16ZM1204.83 674.6C1213.96 669.27 1221.1 661.67 1226.26 651.77C1231.42 641.88 1234 630.43 1234 617.41C1234 604.39 1231.42 592.98 1226.26 583.17C1221.1 573.37 1213.96 565.84 1204.83 560.6C1195.7 555.36 1185.3 552.74 1173.64 552.74C1161.98 552.74 1151.57 555.36 1142.44 560.6C1133.31 565.84 1126.16 573.37 1121.01 583.17C1115.85 592.98 1113.27 604.39 1113.27 617.41C1113.27 630.43 1115.85 641.88 1121.01 651.77C1126.17 661.66 1133.31 669.27 1142.44 674.6C1151.57 679.93 1161.97 682.59 1173.64 682.59C1185.31 682.59 1195.7 679.93 1204.83 674.6Z" fill="url(#paint10_linear_2863_290)"/>
<path d="M1409.5 580.38C1404.94 571.59 1398.59 564.95 1390.48 560.47C1382.36 555.99 1372.98 553.75 1362.33 553.75C1350.66 553.75 1340.26 556.37 1331.13 561.61C1322 566.85 1314.85 574.29 1309.7 583.93C1304.54 593.57 1301.96 604.73 1301.96 617.41C1301.96 630.09 1304.54 641.29 1309.7 651.01C1314.86 660.73 1322 668.22 1331.13 673.46C1340.26 678.7 1350.66 681.32 1362.33 681.32C1378.05 681.32 1390.82 676.93 1400.63 668.13C1410.43 659.34 1416.44 647.42 1418.64 632.37H1352.45V609.29H1449.58V631.86C1447.72 645.56 1442.86 658.15 1435 669.65C1427.14 681.15 1416.91 690.32 1404.31 697.17C1391.71 704.02 1377.72 707.44 1362.34 707.44C1345.77 707.44 1330.64 703.6 1316.94 695.9C1303.24 688.21 1292.38 677.51 1284.35 663.82C1276.32 650.12 1272.3 634.65 1272.3 617.41C1272.3 600.17 1276.31 584.69 1284.35 571C1292.38 557.3 1303.28 546.61 1317.07 538.92C1330.85 531.23 1345.94 527.38 1362.34 527.38C1381.11 527.38 1397.8 531.99 1412.43 541.2C1427.05 550.42 1437.66 563.48 1444.26 580.38H1409.51H1409.5Z" fill="url(#paint11_linear_2863_290)"/>
<path d="M1598.44 529.66L1540.11 642.01V705.92H1511.2V642.01L1452.62 529.66H1484.83L1525.66 616.14L1566.49 529.66H1598.45H1598.44Z" fill="url(#paint12_linear_2863_290)"/>
<defs>
<linearGradient id="paint0_linear_2863_290" x1="0" y1="250.61" x2="721.98" y2="250.61" gradientUnits="userSpaceOnUse">
<stop stop-color="#00E7FF"/>
<stop offset="1" stop-color="#00A9DF"/>
</linearGradient>
<linearGradient id="paint1_linear_2863_290" x1="749.74" y1="-640.27" x2="1096.85" y2="-640.27" gradientUnits="userSpaceOnUse">
<stop stop-color="#00E7FF"/>
<stop offset="1" stop-color="#00A9DF"/>
</linearGradient>
<linearGradient id="paint2_linear_2863_290" x1="1107.26" y1="249.91" x2="1588.35" y2="249.91" gradientUnits="userSpaceOnUse">
<stop stop-color="#00E7FF"/>
<stop offset="1" stop-color="#00A9DF"/>
</linearGradient>
<linearGradient id="paint3_linear_2863_290" x1="10.0603" y1="617.79" x2="133.07" y2="617.79" gradientUnits="userSpaceOnUse">
<stop stop-color="#00E7FF"/>
<stop offset="1" stop-color="#00A9DF"/>
</linearGradient>
<linearGradient id="paint4_linear_2863_290" x1="152.09" y1="617.66" x2="249.47" y2="617.66" gradientUnits="userSpaceOnUse">
<stop stop-color="#00E7FF"/>
<stop offset="1" stop-color="#00A9DF"/>
</linearGradient>
<linearGradient id="paint5_linear_2863_290" x1="265.19" y1="617.41" x2="437.15" y2="617.41" gradientUnits="userSpaceOnUse">
<stop stop-color="#00E7FF"/>
<stop offset="1" stop-color="#00A9DF"/>
</linearGradient>
<linearGradient id="paint6_linear_2863_290" x1="460.73" y1="617.79" x2="601.49" y2="617.79" gradientUnits="userSpaceOnUse">
<stop stop-color="#00E7FF"/>
<stop offset="1" stop-color="#00A9DF"/>
</linearGradient>
<linearGradient id="paint7_linear_2863_290" x1="629.381" y1="617.66" x2="774.201" y2="617.66" gradientUnits="userSpaceOnUse">
<stop stop-color="#00E7FF"/>
<stop offset="1" stop-color="#00A9DF"/>
</linearGradient>
<linearGradient id="paint8_linear_2863_290" x1="792.46" y1="617.54" x2="972.52" y2="617.54" gradientUnits="userSpaceOnUse">
<stop stop-color="#00E7FF"/>
<stop offset="1" stop-color="#00A9DF"/>
</linearGradient>
<linearGradient id="paint9_linear_2863_290" x1="990.78" y1="617.79" x2="1079.29" y2="617.79" gradientUnits="userSpaceOnUse">
<stop stop-color="#00E7FF"/>
<stop offset="1" stop-color="#00A9DF"/>
</linearGradient>
<linearGradient id="paint10_linear_2863_290" x1="1083.6" y1="617.54" x2="1263.67" y2="617.54" gradientUnits="userSpaceOnUse">
<stop stop-color="#00E7FF"/>
<stop offset="1" stop-color="#00A9DF"/>
</linearGradient>
<linearGradient id="paint11_linear_2863_290" x1="1272.29" y1="617.41" x2="1449.57" y2="617.41" gradientUnits="userSpaceOnUse">
<stop stop-color="#00E7FF"/>
<stop offset="1" stop-color="#00A9DF"/>
</linearGradient>
<linearGradient id="paint12_linear_2863_290" x1="1452.61" y1="617.79" x2="1598.44" y2="617.79" gradientUnits="userSpaceOnUse">
<stop stop-color="#00E7FF"/>
<stop offset="1" stop-color="#00A9DF"/>
</linearGradient>
</defs>
</svg>
